<?xml version="1.0" standalone="no"?>
<!DOCTYPE svg PUBLIC "-//W3C//DTD SVG 20010904//EN"
 "http://www.w3.org/TR/2001/REC-SVG-20010904/DTD/svg10.dtd">
<svg version="1.0" xmlns="http://www.w3.org/2000/svg"
 width="700.000000pt" height="700.000000pt" viewBox="0 0 700.000000 700.000000"
 preserveAspectRatio="xMidYMid meet">
<metadata>
Created by potrace 1.11, written by Peter Selinger 2001-2013
</metadata>
<g transform="translate(0.000000,700.000000) scale(0.100000,-0.100000)"
fill="#000000" stroke="none">
<path d="M2600 5409 c-202 -80 -503 -162 -705 -193 -55 -9 -115 -18 -132 -21
l-33 -6 0 -84 0 -83 183 -4 c215 -4 236 -11 277 -93 l25 -50 0 -1830 0 -1830
-22 -48 c-32 -69 -71 -84 -259 -97 -82 -5 -164 -10 -181 -10 l-33 0 0 -96 0
-95 48 7 c62 11 1329 11 1410 1 l62 -8 0 96 0 95 -32 0 c-18 0 -100 5 -182 10
-188 13 -227 28 -259 97 -22 48 -22 49 -25 771 l-3 723 68 -34 c161 -80 315
-111 563 -111 194 0 301 19 402 70 29 15 211 129 403 253 385 249 448 300 544
446 118 181 249 491 296 705 26 121 31 329 10 446 -78 435 -388 790 -815 934
-299 101 -671 90 -890 -26 -47 -25 -135 -99 -320 -269 l-255 -234 -3 284 c-2
210 -5 285 -15 293 -27 22 -55 20 -127 -9z m1263 -403 c321 -96 525 -320 614
-671 30 -123 43 -387 24 -528 -85 -638 -518 -1036 -1066 -978 -260 27 -456
119 -652 305 l-43 40 0 666 c0 413 4 679 10 701 26 93 179 273 301 355 87 57
194 102 299 125 69 15 117 18 255 15 149 -3 181 -6 258 -30z"/>
</g>
</svg>
